<svg xmlns="http://www.w3.org/2000/svg" viewBox="0 0 1024 1024">
<defs><linearGradient id="g" x1="0" y1="0" x2="0" y2="1"><stop offset="0" stop-color="#1a2a4d"/><stop offset="1" stop-color="#0a1224"/></linearGradient></defs>
<rect width="1024" height="1024" rx="228" fill="url(#g)"/>
<polygon points="512.0,212.0 517.2,212.1 522.5,212.4 527.7,212.9 532.9,213.6 538.1,214.6 543.4,215.7 548.6,217.0 553.8,218.6 558.9,220.3 564.1,222.2 569.2,224.4 574.4,226.7 579.5,229.2 584.6,231.9 589.6,234.8 594.7,237.9 599.7,241.2 604.7,244.7 609.7,248.4 614.6,252.2 619.5,256.2 624.4,260.4 629.2,264.8 634.0,269.3 638.8,274.0 643.5,278.9 648.2,283.9 652.8,289.1 657.4,294.4 662.0,299.9 666.5,305.5 671.0,311.3 675.4,317.2 679.8,323.2 684.1,329.4 688.3,335.7 692.5,342.1 696.7,348.6 700.8,355.3 704.8,362.0 708.8,368.9 712.7,375.8 716.6,382.8 720.4,390.0 724.1,397.2 727.8,404.5 731.4,411.9 734.9,419.3 738.4,426.8 741.8,434.4 745.1,442.0 748.4,449.6 751.6,457.3 754.7,465.1 757.7,472.8 760.7,480.6 763.6,488.5 766.4,496.3 769.2,504.1 771.8,512.0 774.4,519.9 776.9,527.7 779.3,535.5 781.6,543.4 783.9,551.2 786.1,558.9 788.2,566.7 790.2,574.4 792.1,582.0 793.9,589.6 795.7,597.2 797.3,604.7 798.9,612.1 800.4,619.5 801.8,626.8 803.1,634.0 804.3,641.2 805.4,648.2 806.5,655.1 807.4,662.0 808.3,668.7 809.1,675.4 809.8,681.9 810.4,688.3 810.9,694.6 811.3,700.8 811.6,706.8 811.8,712.7 812.0,718.5 812.0,724.1 812.0,729.6 811.8,734.9 811.6,740.1 811.3,745.1 810.9,750.0 810.4,754.7 809.8,759.2 809.1,763.6 808.3,767.8 807.4,771.8 806.5,775.6 805.4,779.3 804.3,782.8 803.1,786.1 801.8,789.2 800.4,792.1 798.9,794.8 797.3,797.3 795.7,799.6 793.9,801.8 792.1,803.7 790.2,805.4 788.2,807.0 786.1,808.3 783.9,809.4 781.6,810.4 779.3,811.1 776.9,811.6 774.4,811.9 771.8,812.0 769.2,811.9 766.4,811.6 763.6,811.1 760.7,810.4 757.7,809.4 754.7,808.3 751.6,807.0 748.4,805.4 745.1,803.7 741.8,801.8 738.4,799.6 734.9,797.3 731.4,794.8 727.8,792.1 724.1,789.2 720.4,786.1 716.6,782.8 712.7,779.3 708.8,775.6 704.8,771.8 700.8,767.8 696.7,763.6 692.5,759.2 688.3,754.7 684.1,750.0 679.8,745.1 675.4,740.1 671.0,734.9 666.5,729.6 662.0,724.1 657.4,718.5 652.8,712.7 648.2,706.8 643.5,700.8 638.8,694.6 634.0,688.3 629.2,681.9 624.4,675.4 619.5,668.7 614.6,662.0 609.7,655.1 604.7,648.2 599.7,641.2 594.7,634.0 589.6,626.8 584.6,619.5 579.5,612.1 574.4,604.7 569.2,597.2 564.1,589.6 558.9,582.0 553.8,574.4 548.6,566.7 543.4,558.9 538.1,551.2 532.9,543.4 527.7,535.5 522.5,527.7 517.2,519.9 512.0,512.0 506.8,504.1 501.5,496.3 496.3,488.5 491.1,480.6 485.9,472.8 480.6,465.1 475.4,457.3 470.2,449.6 465.1,442.0 459.9,434.4 454.8,426.8 449.6,419.3 444.5,411.9 439.4,404.5 434.4,397.2 429.3,390.0 424.3,382.8 419.3,375.8 414.3,368.9 409.4,362.0 404.5,355.3 399.6,348.6 394.8,342.1 390.0,335.7 385.2,329.4 380.5,323.2 375.8,317.2 371.2,311.3 366.6,305.5 362.0,299.9 357.5,294.4 353.0,289.1 348.6,283.9 344.2,278.9 339.9,274.0 335.7,269.3 331.5,264.8 327.3,260.4 323.2,256.2 319.2,252.2 315.2,248.4 311.3,244.7 307.4,241.2 303.6,237.9 299.9,234.8 296.2,231.9 292.6,229.2 289.1,226.7 285.6,224.4 282.2,222.2 278.9,220.3 275.6,218.6 272.4,217.0 269.3,215.7 266.3,214.6 263.3,213.6 260.4,212.9 257.6,212.4 254.8,212.1 252.2,212.0 249.6,212.1 247.1,212.4 244.7,212.9 242.4,213.6 240.1,214.6 237.9,215.7 235.8,217.0 233.8,218.6 231.9,220.3 230.1,222.2 228.3,224.4 226.7,226.7 225.1,229.2 223.6,231.9 222.2,234.8 220.9,237.9 219.7,241.2 218.6,244.7 217.5,248.4 216.6,252.2 215.7,256.2 214.9,260.4 214.2,264.8 213.6,269.3 213.1,274.0 212.7,278.9 212.4,283.9 212.2,289.1 212.0,294.4 212.0,299.9 212.0,305.5 212.2,311.3 212.4,317.2 212.7,323.2 213.1,329.4 213.6,335.7 214.2,342.1 214.9,348.6 215.7,355.3 216.6,362.0 217.5,368.9 218.6,375.8 219.7,382.8 220.9,390.0 222.2,397.2 223.6,404.5 225.1,411.9 226.7,419.3 228.3,426.8 230.1,434.4 231.9,442.0 233.8,449.6 235.8,457.3 237.9,465.1 240.1,472.8 242.4,480.6 244.7,488.5 247.1,496.3 249.6,504.1 252.2,512.0 254.8,519.9 257.6,527.7 260.4,535.5 263.3,543.4 266.3,551.2 269.3,558.9 272.4,566.7 275.6,574.4 278.9,582.0 282.2,589.6 285.6,597.2 289.1,604.7 292.6,612.1 296.2,619.5 299.9,626.8 303.6,634.0 307.4,641.2 311.3,648.2 315.2,655.1 319.2,662.0 323.2,668.7 327.3,675.4 331.5,681.9 335.7,688.3 339.9,694.6 344.2,700.8 348.6,706.8 353.0,712.7 357.5,718.5 362.0,724.1 366.6,729.6 371.2,734.9 375.8,740.1 380.5,745.1 385.2,750.0 390.0,754.7 394.8,759.2 399.6,763.6 404.5,767.8 409.4,771.8 414.3,775.6 419.3,779.3 424.3,782.8 429.3,786.1 434.4,789.2 439.4,792.1 444.5,794.8 449.6,797.3 454.8,799.6 459.9,801.8 465.1,803.7 470.2,805.4 475.4,807.0 480.6,808.3 485.9,809.4 491.1,810.4 496.3,811.1 501.5,811.6 506.8,811.9 512.0,812.0 517.2,811.9 522.5,811.6 527.7,811.1 532.9,810.4 538.1,809.4 543.4,808.3 548.6,807.0 553.8,805.4 558.9,803.7 564.1,801.8 569.2,799.6 574.4,797.3 579.5,794.8 584.6,792.1 589.6,789.2 594.7,786.1 599.7,782.8 604.7,779.3 609.7,775.6 614.6,771.8 619.5,767.8 624.4,763.6 629.2,759.2 634.0,754.7 638.8,750.0 643.5,745.1 648.2,740.1 652.8,734.9 657.4,729.6 662.0,724.1 666.5,718.5 671.0,712.7 675.4,706.8 679.8,700.8 684.1,694.6 688.3,688.3 692.5,681.9 696.7,675.4 700.8,668.7 704.8,662.0 708.8,655.1 712.7,648.2 716.6,641.2 720.4,634.0 724.1,626.8 727.8,619.5 731.4,612.1 734.9,604.7 738.4,597.2 741.8,589.6 745.1,582.0 748.4,574.4 751.6,566.7 754.7,558.9 757.7,551.2 760.7,543.4 763.6,535.5 766.4,527.7 769.2,519.9 771.8,512.0 774.4,504.1 776.9,496.3 779.3,488.5 781.6,480.6 783.9,472.8 786.1,465.1 788.2,457.3 790.2,449.6 792.1,442.0 793.9,434.4 795.7,426.8 797.3,419.3 798.9,411.9 800.4,404.5 801.8,397.2 803.1,390.0 804.3,382.8 805.4,375.8 806.5,368.9 807.4,362.0 808.3,355.3 809.1,348.6 809.8,342.1 810.4,335.7 810.9,329.4 811.3,323.2 811.6,317.2 811.8,311.3 812.0,305.5 812.0,299.9 812.0,294.4 811.8,289.1 811.6,283.9 811.3,278.9 810.9,274.0 810.4,269.3 809.8,264.8 809.1,260.4 808.3,256.2 807.4,252.2 806.5,248.4 805.4,244.7 804.3,241.2 803.1,237.9 801.8,234.8 800.4,231.9 798.9,229.2 797.3,226.7 795.7,224.4 793.9,222.2 792.1,220.3 790.2,218.6 788.2,217.0 786.1,215.7 783.9,214.6 781.6,213.6 779.3,212.9 776.9,212.4 774.4,212.1 771.8,212.0 769.2,212.1 766.4,212.4 763.6,212.9 760.7,213.6 757.7,214.6 754.7,215.7 751.6,217.0 748.4,218.6 745.1,220.3 741.8,222.2 738.4,224.4 734.9,226.7 731.4,229.2 727.8,231.9 724.1,234.8 720.4,237.9 716.6,241.2 712.7,244.7 708.8,248.4 704.8,252.2 700.8,256.2 696.7,260.4 692.5,264.8 688.3,269.3 684.1,274.0 679.8,278.9 675.4,283.9 671.0,289.1 666.5,294.4 662.0,299.9 657.4,305.5 652.8,311.3 648.2,317.2 643.5,323.2 638.8,329.4 634.0,335.7 629.2,342.1 624.4,348.6 619.5,355.3 614.6,362.0 609.7,368.9 604.7,375.8 599.7,382.8 594.7,390.0 589.6,397.2 584.6,404.5 579.5,411.9 574.4,419.3 569.2,426.8 564.1,434.4 558.9,442.0 553.8,449.6 548.6,457.3 543.4,465.1 538.1,472.8 532.9,480.6 527.7,488.5 522.5,496.3 517.2,504.1 512.0,512.0 506.8,519.9 501.5,527.7 496.3,535.5 491.1,543.4 485.9,551.2 480.6,558.9 475.4,566.7 470.2,574.4 465.1,582.0 459.9,589.6 454.8,597.2 449.6,604.7 444.5,612.1 439.4,619.5 434.4,626.8 429.3,634.0 424.3,641.2 419.3,648.2 414.3,655.1 409.4,662.0 404.5,668.7 399.6,675.4 394.8,681.9 390.0,688.3 385.2,694.6 380.5,700.8 375.8,706.8 371.2,712.7 366.6,718.5 362.0,724.1 357.5,729.6 353.0,734.9 348.6,740.1 344.2,745.1 339.9,750.0 335.7,754.7 331.5,759.2 327.3,763.6 323.2,767.8 319.2,771.8 315.2,775.6 311.3,779.3 307.4,782.8 303.6,786.1 299.9,789.2 296.2,792.1 292.6,794.8 289.1,797.3 285.6,799.6 282.2,801.8 278.9,803.7 275.6,805.4 272.4,807.0 269.3,808.3 266.3,809.4 263.3,810.4 260.4,811.1 257.6,811.6 254.8,811.9 252.2,812.0 249.6,811.9 247.1,811.6 244.7,811.1 242.4,810.4 240.1,809.4 237.9,808.3 235.8,807.0 233.8,805.4 231.9,803.7 230.1,801.8 228.3,799.6 226.7,797.3 225.1,794.8 223.6,792.1 222.2,789.2 220.9,786.1 219.7,782.8 218.6,779.3 217.5,775.6 216.6,771.8 215.7,767.8 214.9,763.6 214.2,759.2 213.6,754.7 213.1,750.0 212.7,745.1 212.4,740.1 212.2,734.9 212.0,729.6 212.0,724.1 212.0,718.5 212.2,712.7 212.4,706.8 212.7,700.8 213.1,694.6 213.6,688.3 214.2,681.9 214.9,675.4 215.7,668.7 216.6,662.0 217.5,655.1 218.6,648.2 219.7,641.2 220.9,634.0 222.2,626.8 223.6,619.5 225.1,612.1 226.7,604.7 228.3,597.2 230.1,589.6 231.9,582.0 233.8,574.4 235.8,566.7 237.9,558.9 240.1,551.2 242.4,543.4 244.7,535.5 247.1,527.7 249.6,519.9 252.2,512.0 254.8,504.1 257.6,496.3 260.4,488.5 263.3,480.6 266.3,472.8 269.3,465.1 272.4,457.3 275.6,449.6 278.9,442.0 282.2,434.4 285.6,426.8 289.1,419.3 292.6,411.9 296.2,404.5 299.9,397.2 303.6,390.0 307.4,382.8 311.3,375.8 315.2,368.9 319.2,362.0 323.2,355.3 327.3,348.6 331.5,342.1 335.7,335.7 339.9,329.4 344.2,323.2 348.6,317.2 353.0,311.3 357.5,305.5 362.0,299.9 366.6,294.4 371.2,289.1 375.8,283.9 380.5,278.9 385.2,274.0 390.0,269.3 394.8,264.8 399.6,260.4 404.5,256.2 409.4,252.2 414.3,248.4 419.3,244.7 424.3,241.2 429.3,237.9 434.4,234.8 439.4,231.9 444.5,229.2 449.6,226.7 454.8,224.4 459.9,222.2 465.1,220.3 470.2,218.6 475.4,217.0 480.6,215.7 485.9,214.6 491.1,213.6 496.3,212.9 501.5,212.4 506.8,212.1" fill="none" stroke="#FFFFFF" stroke-width="44" stroke-linejoin="round"/>
</svg>
